<svg xmlns="http://www.w3.org/2000/svg" viewBox="0 0 100 100">
  <defs>
    <linearGradient id="g" x1="0%" y1="0%" x2="100%" y2="100%">
      <stop offset="0%" style="stop-color:#22c55e"/>
      <stop offset="100%" style="stop-color:#15803d"/>
    </linearGradient>
  </defs>
  <rect width="100" height="100" rx="28" fill="url(#g)"/>
  <g transform="translate(50,50)">
    <path d="M0,-28 C8,-28 14,-22 16,-14 C18,-6 12,-2 6,-4 C0,-6 -2,-12 -2,-20 C-2,-24 0,-28 0,-28Z" fill="white" opacity="0.9"/>
    <line x1="0" y1="-28" x2="0" y2="20" stroke="white" stroke-width="3.5" stroke-linecap="round" opacity="0.9"/>
    <path d="M-18,10 C-14,4 -8,0 0,0 C8,0 14,4 18,10" fill="none" stroke="white" stroke-width="3" stroke-linecap="round" opacity="0.7"/>
    <path d="M-22,18 C-16,12 -10,8 0,8 C10,8 16,12 22,18" fill="none" stroke="white" stroke-width="2.5" stroke-linecap="round" opacity="0.5"/>
  </g>
</svg>
